%TF.GenerationSoftware,KiCad,Pcbnew,(5.1.8)-1*%
%TF.CreationDate,2021-01-22T22:27:45+01:00*%
%TF.ProjectId,IRMP_stm32,49524d50-5f73-4746-9d33-322e6b696361,rev?*%
%TF.SameCoordinates,Original*%
%TF.FileFunction,Legend,Bot*%
%TF.FilePolarity,Positive*%
%FSLAX46Y46*%
G04 Gerber Fmt 4.6, Leading zero omitted, Abs format (unit mm)*
G04 Created by KiCad (PCBNEW (5.1.8)-1) date 2021-01-22 22:27:45*
%MOMM*%
%LPD*%
G01*
G04 APERTURE LIST*
%ADD10C,0.160000*%
%ADD11C,0.200000*%
%ADD12C,0.100000*%
%ADD13C,0.120000*%
G04 APERTURE END LIST*
D10*
X124604761Y-101952380D02*
X124652380Y-102047619D01*
X124652380Y-102238095D01*
X124604761Y-102333333D01*
X124509523Y-102380952D01*
X124461904Y-102380952D01*
X124366666Y-102333333D01*
X124319047Y-102238095D01*
X124319047Y-102095238D01*
X124271428Y-102000000D01*
X124176190Y-101952380D01*
X124128571Y-101952380D01*
X124033333Y-102000000D01*
X123985714Y-102095238D01*
X123985714Y-102238095D01*
X124033333Y-102333333D01*
X124652380Y-102952380D02*
X124604761Y-102857142D01*
X124509523Y-102809523D01*
X123652380Y-102809523D01*
X124271428Y-103333333D02*
X124271428Y-104095238D01*
X124652380Y-105000000D02*
X124128571Y-105000000D01*
X124033333Y-104952380D01*
X123985714Y-104857142D01*
X123985714Y-104666666D01*
X124033333Y-104571428D01*
X124604761Y-105000000D02*
X124652380Y-104904761D01*
X124652380Y-104666666D01*
X124604761Y-104571428D01*
X124509523Y-104523809D01*
X124414285Y-104523809D01*
X124319047Y-104571428D01*
X124271428Y-104666666D01*
X124271428Y-104904761D01*
X124223809Y-105000000D01*
X124652380Y-105619047D02*
X124604761Y-105523809D01*
X124509523Y-105476190D01*
X123652380Y-105476190D01*
X124604761Y-106380952D02*
X124652380Y-106285714D01*
X124652380Y-106095238D01*
X124604761Y-106000000D01*
X124509523Y-105952380D01*
X124128571Y-105952380D01*
X124033333Y-106000000D01*
X123985714Y-106095238D01*
X123985714Y-106285714D01*
X124033333Y-106380952D01*
X124128571Y-106428571D01*
X124223809Y-106428571D01*
X124319047Y-105952380D01*
X124652380Y-106761904D02*
X123985714Y-107285714D01*
X123985714Y-106761904D02*
X124652380Y-107285714D01*
X124557142Y-107666666D02*
X124604761Y-107714285D01*
X124652380Y-107666666D01*
X124604761Y-107619047D01*
X124557142Y-107666666D01*
X124652380Y-107666666D01*
X123985714Y-108142857D02*
X124652380Y-108142857D01*
X124080952Y-108142857D02*
X124033333Y-108190476D01*
X123985714Y-108285714D01*
X123985714Y-108428571D01*
X124033333Y-108523809D01*
X124128571Y-108571428D01*
X124652380Y-108571428D01*
X124604761Y-109428571D02*
X124652380Y-109333333D01*
X124652380Y-109142857D01*
X124604761Y-109047619D01*
X124509523Y-109000000D01*
X124128571Y-109000000D01*
X124033333Y-109047619D01*
X123985714Y-109142857D01*
X123985714Y-109333333D01*
X124033333Y-109428571D01*
X124128571Y-109476190D01*
X124223809Y-109476190D01*
X124319047Y-109000000D01*
X123985714Y-109761904D02*
X123985714Y-110142857D01*
X123652380Y-109904761D02*
X124509523Y-109904761D01*
X124604761Y-109952380D01*
X124652380Y-110047619D01*
X124652380Y-110142857D01*
D11*
X124233333Y-99752380D02*
X124233333Y-98752380D01*
X123185714Y-99752380D02*
X123519047Y-99276190D01*
X123757142Y-99752380D02*
X123757142Y-98752380D01*
X123376190Y-98752380D01*
X123280952Y-98800000D01*
X123233333Y-98847619D01*
X123185714Y-98942857D01*
X123185714Y-99085714D01*
X123233333Y-99180952D01*
X123280952Y-99228571D01*
X123376190Y-99276190D01*
X123757142Y-99276190D01*
X122757142Y-99752380D02*
X122757142Y-98752380D01*
X122423809Y-99466666D01*
X122090476Y-98752380D01*
X122090476Y-99752380D01*
X121614285Y-99752380D02*
X121614285Y-98752380D01*
X121233333Y-98752380D01*
X121138095Y-98800000D01*
X121090476Y-98847619D01*
X121042857Y-98942857D01*
X121042857Y-99085714D01*
X121090476Y-99180952D01*
X121138095Y-99228571D01*
X121233333Y-99276190D01*
X121614285Y-99276190D01*
X119900000Y-99704761D02*
X119757142Y-99752380D01*
X119519047Y-99752380D01*
X119423809Y-99704761D01*
X119376190Y-99657142D01*
X119328571Y-99561904D01*
X119328571Y-99466666D01*
X119376190Y-99371428D01*
X119423809Y-99323809D01*
X119519047Y-99276190D01*
X119709523Y-99228571D01*
X119804761Y-99180952D01*
X119852380Y-99133333D01*
X119900000Y-99038095D01*
X119900000Y-98942857D01*
X119852380Y-98847619D01*
X119804761Y-98800000D01*
X119709523Y-98752380D01*
X119471428Y-98752380D01*
X119328571Y-98800000D01*
X119042857Y-98752380D02*
X118471428Y-98752380D01*
X118757142Y-99752380D02*
X118757142Y-98752380D01*
X118138095Y-99752380D02*
X118138095Y-98752380D01*
X117804761Y-99466666D01*
X117471428Y-98752380D01*
X117471428Y-99752380D01*
X117090476Y-98752380D02*
X116471428Y-98752380D01*
X116804761Y-99133333D01*
X116661904Y-99133333D01*
X116566666Y-99180952D01*
X116519047Y-99228571D01*
X116471428Y-99323809D01*
X116471428Y-99561904D01*
X116519047Y-99657142D01*
X116566666Y-99704761D01*
X116661904Y-99752380D01*
X116947619Y-99752380D01*
X117042857Y-99704761D01*
X117090476Y-99657142D01*
X116090476Y-98847619D02*
X116042857Y-98800000D01*
X115947619Y-98752380D01*
X115709523Y-98752380D01*
X115614285Y-98800000D01*
X115566666Y-98847619D01*
X115519047Y-98942857D01*
X115519047Y-99038095D01*
X115566666Y-99180952D01*
X116138095Y-99752380D01*
X115519047Y-99752380D01*
D12*
%TO.C,LG?1*%
G36*
X117584625Y-116536490D02*
G01*
X117584634Y-116601372D01*
X117584679Y-116656498D01*
X117584788Y-116702697D01*
X117584988Y-116740797D01*
X117585306Y-116771625D01*
X117585770Y-116796009D01*
X117586408Y-116814778D01*
X117587247Y-116828759D01*
X117588314Y-116838781D01*
X117589637Y-116845671D01*
X117591243Y-116850257D01*
X117593160Y-116853367D01*
X117595208Y-116855625D01*
X117604439Y-116863373D01*
X117610413Y-116866208D01*
X117616692Y-116867183D01*
X117633129Y-116870078D01*
X117659486Y-116874848D01*
X117695522Y-116881450D01*
X117740995Y-116889838D01*
X117795668Y-116899969D01*
X117859298Y-116911797D01*
X117931646Y-116925279D01*
X118012472Y-116940369D01*
X118101536Y-116957025D01*
X118127878Y-116961955D01*
X118156862Y-116967882D01*
X118177058Y-116973325D01*
X118190211Y-116978845D01*
X118197549Y-116984433D01*
X118201923Y-116991938D01*
X118209576Y-117008103D01*
X118220021Y-117031712D01*
X118232773Y-117061549D01*
X118247346Y-117096398D01*
X118263254Y-117135043D01*
X118280012Y-117176269D01*
X118297134Y-117218860D01*
X118314134Y-117261599D01*
X118330526Y-117303272D01*
X118345824Y-117342662D01*
X118359543Y-117378554D01*
X118371197Y-117409731D01*
X118380300Y-117434978D01*
X118386367Y-117453080D01*
X118388911Y-117462819D01*
X118388958Y-117463497D01*
X118387243Y-117469542D01*
X118381884Y-117480362D01*
X118372563Y-117496450D01*
X118358960Y-117518300D01*
X118340757Y-117546407D01*
X118317634Y-117581265D01*
X118289273Y-117623367D01*
X118255354Y-117673209D01*
X118224137Y-117718793D01*
X118193163Y-117764076D01*
X118163993Y-117807019D01*
X118137184Y-117846783D01*
X118113292Y-117882529D01*
X118092873Y-117913417D01*
X118076484Y-117938608D01*
X118064681Y-117957263D01*
X118058019Y-117968542D01*
X118056730Y-117971377D01*
X118057051Y-117974884D01*
X118059545Y-117980092D01*
X118064739Y-117987564D01*
X118073158Y-117997861D01*
X118085327Y-118011545D01*
X118101773Y-118029177D01*
X118123021Y-118051319D01*
X118149597Y-118078532D01*
X118182027Y-118111379D01*
X118220836Y-118150420D01*
X118266550Y-118196218D01*
X118276581Y-118206252D01*
X118323650Y-118253266D01*
X118363853Y-118293282D01*
X118397759Y-118326831D01*
X118425940Y-118354446D01*
X118448965Y-118376659D01*
X118467402Y-118394002D01*
X118481823Y-118407009D01*
X118492797Y-118416211D01*
X118500893Y-118422140D01*
X118506681Y-118425330D01*
X118510732Y-118426312D01*
X118511980Y-118426209D01*
X118519100Y-118422737D01*
X118533893Y-118413888D01*
X118555343Y-118400326D01*
X118582433Y-118382714D01*
X118614144Y-118361715D01*
X118649461Y-118337992D01*
X118687366Y-118312208D01*
X118697728Y-118305105D01*
X118738884Y-118276855D01*
X118779999Y-118248646D01*
X118819628Y-118221467D01*
X118856324Y-118196310D01*
X118888643Y-118174166D01*
X118915137Y-118156026D01*
X118934362Y-118142882D01*
X118934449Y-118142822D01*
X118958007Y-118127254D01*
X118979300Y-118114138D01*
X118996449Y-118104563D01*
X119007575Y-118099615D01*
X119009848Y-118099175D01*
X119017645Y-118101581D01*
X119033282Y-118108326D01*
X119055293Y-118118708D01*
X119082213Y-118132024D01*
X119112576Y-118147571D01*
X119131280Y-118157383D01*
X119162725Y-118173859D01*
X119191318Y-118188525D01*
X119215652Y-118200686D01*
X119234321Y-118209645D01*
X119245919Y-118214706D01*
X119248898Y-118215583D01*
X119257276Y-118211534D01*
X119264386Y-118203621D01*
X119267455Y-118197164D01*
X119274279Y-118181588D01*
X119284581Y-118157557D01*
X119298082Y-118125737D01*
X119314502Y-118086792D01*
X119333563Y-118041387D01*
X119354986Y-117990188D01*
X119378493Y-117933858D01*
X119403805Y-117873063D01*
X119430643Y-117808468D01*
X119458728Y-117740737D01*
X119481286Y-117686243D01*
X119519198Y-117594439D01*
X119553039Y-117512176D01*
X119582886Y-117439258D01*
X119608816Y-117375490D01*
X119630908Y-117320678D01*
X119649239Y-117274625D01*
X119663886Y-117237138D01*
X119674929Y-117208020D01*
X119682444Y-117187076D01*
X119686509Y-117174112D01*
X119687292Y-117169140D01*
X119681049Y-117160034D01*
X119667323Y-117147959D01*
X119649107Y-117135305D01*
X119614381Y-117112275D01*
X119577938Y-117086135D01*
X119542383Y-117058894D01*
X119510323Y-117032558D01*
X119484362Y-117009137D01*
X119480561Y-117005408D01*
X119426669Y-116944469D01*
X119381535Y-116878410D01*
X119345222Y-116808140D01*
X119317794Y-116734566D01*
X119299313Y-116658595D01*
X119289842Y-116581137D01*
X119289444Y-116503098D01*
X119298181Y-116425387D01*
X119316117Y-116348911D01*
X119343314Y-116274579D01*
X119379836Y-116203297D01*
X119420792Y-116142420D01*
X119475868Y-116078221D01*
X119537014Y-116022552D01*
X119603684Y-115975686D01*
X119675333Y-115937894D01*
X119751413Y-115909446D01*
X119831380Y-115890615D01*
X119914685Y-115881671D01*
X119947354Y-115880921D01*
X120032241Y-115885872D01*
X120113339Y-115900691D01*
X120190521Y-115925327D01*
X120263662Y-115959730D01*
X120332635Y-116003849D01*
X120397312Y-116057634D01*
X120403559Y-116063561D01*
X120461097Y-116125595D01*
X120508977Y-116191955D01*
X120547209Y-116262662D01*
X120575803Y-116337740D01*
X120594768Y-116417209D01*
X120604114Y-116501091D01*
X120604623Y-116512312D01*
X120603640Y-116593171D01*
X120594077Y-116669031D01*
X120575575Y-116741556D01*
X120547775Y-116812413D01*
X120533739Y-116841112D01*
X120497140Y-116903314D01*
X120453538Y-116961255D01*
X120402115Y-117015771D01*
X120342052Y-117067698D01*
X120272531Y-117117871D01*
X120245601Y-117135305D01*
X120226593Y-117148573D01*
X120213178Y-117160548D01*
X120207417Y-117169140D01*
X120208497Y-117175213D01*
X120212958Y-117189093D01*
X120220878Y-117210974D01*
X120232335Y-117241053D01*
X120247406Y-117279524D01*
X120266169Y-117326582D01*
X120288702Y-117382423D01*
X120315082Y-117447242D01*
X120345388Y-117521234D01*
X120379697Y-117604594D01*
X120413423Y-117686243D01*
X120442286Y-117755956D01*
X120470120Y-117823050D01*
X120496644Y-117886862D01*
X120521581Y-117946727D01*
X120544651Y-118001979D01*
X120565576Y-118051954D01*
X120584077Y-118095987D01*
X120599875Y-118133413D01*
X120612692Y-118163567D01*
X120622248Y-118185785D01*
X120628266Y-118199401D01*
X120630323Y-118203621D01*
X120638778Y-118212573D01*
X120645811Y-118215583D01*
X120652491Y-118213193D01*
X120667087Y-118206489D01*
X120688192Y-118196165D01*
X120714399Y-118182919D01*
X120744301Y-118167445D01*
X120763428Y-118157383D01*
X120795123Y-118140859D01*
X120824228Y-118126157D01*
X120849279Y-118113980D01*
X120868809Y-118105030D01*
X120881353Y-118100009D01*
X120884860Y-118099175D01*
X120893175Y-118102057D01*
X120908234Y-118109985D01*
X120928159Y-118121871D01*
X120951070Y-118136626D01*
X120960260Y-118142822D01*
X120979439Y-118155935D01*
X121005896Y-118174049D01*
X121038185Y-118196173D01*
X121074860Y-118221315D01*
X121114476Y-118248486D01*
X121155587Y-118276692D01*
X121196747Y-118304944D01*
X121196980Y-118305105D01*
X121235401Y-118331324D01*
X121271503Y-118355659D01*
X121304271Y-118377445D01*
X121332686Y-118396021D01*
X121355731Y-118410722D01*
X121372390Y-118420886D01*
X121381645Y-118425849D01*
X121382729Y-118426209D01*
X121386249Y-118425953D01*
X121391283Y-118423700D01*
X121398398Y-118418917D01*
X121408166Y-118411073D01*
X121421155Y-118399634D01*
X121437937Y-118384069D01*
X121459079Y-118363846D01*
X121485153Y-118338431D01*
X121516727Y-118307292D01*
X121554372Y-118269897D01*
X121598658Y-118225714D01*
X121618128Y-118206252D01*
X121665333Y-118158986D01*
X121705526Y-118118590D01*
X121739229Y-118084504D01*
X121766967Y-118056168D01*
X121789265Y-118033023D01*
X121806646Y-118014508D01*
X121819634Y-118000064D01*
X121828753Y-117989132D01*
X121834529Y-117981152D01*
X121837484Y-117975563D01*
X121838143Y-117971807D01*
X121838078Y-117971377D01*
X121834680Y-117964775D01*
X121825814Y-117950311D01*
X121812035Y-117928824D01*
X121793899Y-117901153D01*
X121771962Y-117868137D01*
X121746781Y-117830615D01*
X121718911Y-117789427D01*
X121688909Y-117745411D01*
X121670672Y-117718802D01*
X121632095Y-117662476D01*
X121599332Y-117614279D01*
X121572060Y-117573716D01*
X121549959Y-117540289D01*
X121532709Y-117513504D01*
X121519990Y-117492864D01*
X121511481Y-117477872D01*
X121506861Y-117468034D01*
X121505750Y-117463506D01*
X121507711Y-117455156D01*
X121513268Y-117438258D01*
X121521937Y-117414028D01*
X121533230Y-117383680D01*
X121546664Y-117348432D01*
X121561752Y-117309499D01*
X121578007Y-117268097D01*
X121594945Y-117225441D01*
X121612080Y-117182748D01*
X121628925Y-117141233D01*
X121644995Y-117102112D01*
X121659805Y-117066601D01*
X121672868Y-117035916D01*
X121683699Y-117011272D01*
X121691812Y-116993886D01*
X121696721Y-116984973D01*
X121697159Y-116984433D01*
X121705399Y-116978351D01*
X121719084Y-116972863D01*
X121739961Y-116967405D01*
X121766831Y-116961962D01*
X121851800Y-116946076D01*
X121930449Y-116931395D01*
X122002358Y-116917995D01*
X122067104Y-116905956D01*
X122124266Y-116895354D01*
X122173421Y-116886268D01*
X122214147Y-116878777D01*
X122246022Y-116872958D01*
X122268625Y-116868888D01*
X122281534Y-116866648D01*
X122284552Y-116866208D01*
X122291130Y-116862823D01*
X122299500Y-116855625D01*
X122301725Y-116853139D01*
X122303615Y-116849935D01*
X122305196Y-116845185D01*
X122306495Y-116838060D01*
X122307542Y-116827733D01*
X122308362Y-116813376D01*
X122308984Y-116794160D01*
X122309435Y-116769258D01*
X122309742Y-116737842D01*
X122309933Y-116699084D01*
X122310035Y-116652156D01*
X122310076Y-116596230D01*
X122310083Y-116536490D01*
X122310042Y-116469134D01*
X122309905Y-116411632D01*
X122309658Y-116363257D01*
X122309285Y-116323282D01*
X122308768Y-116290977D01*
X122308093Y-116265615D01*
X122307243Y-116246468D01*
X122306202Y-116232807D01*
X122304954Y-116223905D01*
X122303483Y-116219033D01*
X122303059Y-116218332D01*
X122292890Y-116211346D01*
X122273807Y-116204910D01*
X122259403Y-116201699D01*
X122246948Y-116199339D01*
X122225261Y-116195264D01*
X122195516Y-116189692D01*
X122158885Y-116182843D01*
X122116541Y-116174936D01*
X122069659Y-116166190D01*
X122019410Y-116156824D01*
X121966968Y-116147058D01*
X121960833Y-116145916D01*
X121909246Y-116136212D01*
X121860576Y-116126860D01*
X121815864Y-116118075D01*
X121776152Y-116110070D01*
X121742481Y-116103059D01*
X121715890Y-116097255D01*
X121697421Y-116092873D01*
X121688115Y-116090125D01*
X121687442Y-116089789D01*
X121682836Y-116083351D01*
X121674763Y-116068318D01*
X121663745Y-116045898D01*
X121650305Y-116017300D01*
X121634963Y-115983730D01*
X121618241Y-115946399D01*
X121600661Y-115906512D01*
X121582744Y-115865280D01*
X121565012Y-115823909D01*
X121547987Y-115783609D01*
X121532190Y-115745586D01*
X121518142Y-115711050D01*
X121506366Y-115681209D01*
X121497383Y-115657269D01*
X121491715Y-115640441D01*
X121489875Y-115632185D01*
X121491193Y-115626674D01*
X121495394Y-115617494D01*
X121502850Y-115604069D01*
X121513931Y-115585825D01*
X121529008Y-115562185D01*
X121548453Y-115532574D01*
X121572637Y-115496419D01*
X121601930Y-115453142D01*
X121636704Y-115402168D01*
X121662818Y-115364058D01*
X121694550Y-115317662D01*
X121724482Y-115273605D01*
X121752073Y-115232702D01*
X121776781Y-115195771D01*
X121798065Y-115163629D01*
X121815383Y-115137092D01*
X121828193Y-115116978D01*
X121835955Y-115104104D01*
X121838162Y-115099581D01*
X121837757Y-115096018D01*
X121835091Y-115090663D01*
X121829642Y-115082956D01*
X121820885Y-115072339D01*
X121808297Y-115058253D01*
X121791354Y-115040138D01*
X121769534Y-115017436D01*
X121742311Y-114989588D01*
X121709164Y-114956035D01*
X121669568Y-114916218D01*
X121623000Y-114869578D01*
X121618847Y-114865424D01*
X121565063Y-114811815D01*
X121518498Y-114765776D01*
X121479064Y-114727224D01*
X121446672Y-114696073D01*
X121421232Y-114672240D01*
X121402657Y-114655639D01*
X121390857Y-114646186D01*
X121386115Y-114643708D01*
X121379863Y-114646637D01*
X121365714Y-114655073D01*
X121344465Y-114668490D01*
X121316915Y-114686362D01*
X121283862Y-114708163D01*
X121246103Y-114733367D01*
X121204437Y-114761447D01*
X121159662Y-114791879D01*
X121116397Y-114821508D01*
X121059256Y-114860697D01*
X121010199Y-114894152D01*
X120968661Y-114922237D01*
X120934076Y-114945319D01*
X120905882Y-114963762D01*
X120883512Y-114977933D01*
X120866402Y-114988195D01*
X120853987Y-114994916D01*
X120845703Y-114998461D01*
X120841732Y-114999255D01*
X120832672Y-114997249D01*
X120815347Y-114991600D01*
X120790992Y-114982816D01*
X120760842Y-114971409D01*
X120726132Y-114957885D01*
X120688099Y-114942756D01*
X120647977Y-114926531D01*
X120607002Y-114909717D01*
X120566409Y-114892826D01*
X120527433Y-114876366D01*
X120491310Y-114860846D01*
X120459275Y-114846776D01*
X120432563Y-114834666D01*
X120412410Y-114825023D01*
X120400051Y-114818358D01*
X120396735Y-114815795D01*
X120394517Y-114808763D01*
X120390591Y-114792269D01*
X120385150Y-114767265D01*
X120378384Y-114734700D01*
X120370487Y-114695525D01*
X120361649Y-114650691D01*
X120352063Y-114601147D01*
X120341920Y-114547845D01*
X120332618Y-114498220D01*
X120319741Y-114429387D01*
X120308552Y-114370391D01*
X120298926Y-114320639D01*
X120290740Y-114279541D01*
X120283870Y-114246507D01*
X120278191Y-114220943D01*
X120273579Y-114202261D01*
X120269910Y-114189867D01*
X120267060Y-114183173D01*
X120266210Y-114182042D01*
X120263695Y-114180085D01*
X120259829Y-114178422D01*
X120253796Y-114177030D01*
X120244776Y-114175885D01*
X120231950Y-114174963D01*
X120214502Y-114174240D01*
X120191612Y-114173692D01*
X120162463Y-114173296D01*
X120126235Y-114173028D01*
X120082111Y-114172863D01*
X120029273Y-114172779D01*
X119966901Y-114172751D01*
X119947354Y-114172750D01*
X119882358Y-114172758D01*
X119827119Y-114172803D01*
X119780811Y-114172911D01*
X119742606Y-114173110D01*
X119711678Y-114173427D01*
X119687201Y-114173889D01*
X119668348Y-114174523D01*
X119654293Y-114175358D01*
X119644210Y-114176419D01*
X119637271Y-114177736D01*
X119632650Y-114179334D01*
X119629521Y-114181241D01*
X119627208Y-114183333D01*
X119619432Y-114192897D01*
X119616625Y-114199442D01*
X119615645Y-114207663D01*
X119612849Y-114224951D01*
X119608455Y-114250180D01*
X119602679Y-114282222D01*
X119595739Y-114319950D01*
X119587851Y-114362236D01*
X119579233Y-114407954D01*
X119570101Y-114455976D01*
X119560673Y-114505175D01*
X119551166Y-114554424D01*
X119541796Y-114602594D01*
X119532781Y-114648560D01*
X119524339Y-114691193D01*
X119516685Y-114729366D01*
X119510036Y-114761953D01*
X119504611Y-114787825D01*
X119500626Y-114805856D01*
X119498298Y-114814918D01*
X119497978Y-114815687D01*
X119491616Y-114820032D01*
X119476625Y-114827703D01*
X119454239Y-114838191D01*
X119425693Y-114850985D01*
X119392221Y-114865577D01*
X119355058Y-114881458D01*
X119315439Y-114898118D01*
X119274598Y-114915047D01*
X119233770Y-114931737D01*
X119194189Y-114947677D01*
X119157091Y-114962360D01*
X119123708Y-114975274D01*
X119095278Y-114985912D01*
X119073032Y-114993763D01*
X119058208Y-114998319D01*
X119052970Y-114999275D01*
X119049789Y-114999097D01*
X119046075Y-114998307D01*
X119041272Y-114996537D01*
X119034824Y-114993420D01*
X119026173Y-114988588D01*
X119014762Y-114981674D01*
X119000036Y-114972311D01*
X118981437Y-114960132D01*
X118958408Y-114944770D01*
X118930392Y-114925856D01*
X118896834Y-114903025D01*
X118857176Y-114875908D01*
X118810861Y-114844139D01*
X118757334Y-114807350D01*
X118696036Y-114765173D01*
X118648748Y-114732621D01*
X118615640Y-114710076D01*
X118584928Y-114689634D01*
X118557797Y-114672048D01*
X118535434Y-114658071D01*
X118519025Y-114648454D01*
X118509756Y-114643950D01*
X118508590Y-114643708D01*
X118502409Y-114647225D01*
X118489516Y-114657831D01*
X118469822Y-114675610D01*
X118443240Y-114700644D01*
X118409685Y-114733016D01*
X118369069Y-114772808D01*
X118321305Y-114820104D01*
X118275862Y-114865424D01*
X118228697Y-114912651D01*
X118188546Y-114953009D01*
X118154888Y-114987057D01*
X118127198Y-115015353D01*
X118104953Y-115038458D01*
X118087629Y-115056929D01*
X118074702Y-115071325D01*
X118065651Y-115082206D01*
X118059950Y-115090130D01*
X118057076Y-115095657D01*
X118056506Y-115099345D01*
X118056545Y-115099581D01*
X118059914Y-115106131D01*
X118068762Y-115120569D01*
X118082545Y-115142079D01*
X118100724Y-115169844D01*
X118122756Y-115203046D01*
X118148100Y-115240869D01*
X118176215Y-115282496D01*
X118206559Y-115327110D01*
X118231889Y-115364132D01*
X118270539Y-115420599D01*
X118303460Y-115468985D01*
X118331018Y-115509860D01*
X118353582Y-115543793D01*
X118371518Y-115571354D01*
X118385194Y-115593113D01*
X118394977Y-115609638D01*
X118401235Y-115621501D01*
X118404336Y-115629270D01*
X118404833Y-115632258D01*
X118402757Y-115641286D01*
X118396875Y-115658562D01*
X118387710Y-115682876D01*
X118375783Y-115713022D01*
X118361616Y-115747791D01*
X118345730Y-115785975D01*
X118328648Y-115826366D01*
X118310890Y-115867756D01*
X118292978Y-115908937D01*
X118275435Y-115948701D01*
X118258781Y-115985840D01*
X118243539Y-116019145D01*
X118230229Y-116047409D01*
X118219374Y-116069424D01*
X118211496Y-116083981D01*
X118207266Y-116089789D01*
X118199929Y-116092182D01*
X118183219Y-116096253D01*
X118158179Y-116101788D01*
X118125848Y-116108573D01*
X118087267Y-116116396D01*
X118043477Y-116125041D01*
X117995520Y-116134296D01*
X117944435Y-116143946D01*
X117933875Y-116145916D01*
X117881256Y-116155715D01*
X117830695Y-116165138D01*
X117783364Y-116173966D01*
X117740437Y-116181981D01*
X117703088Y-116188964D01*
X117672489Y-116194694D01*
X117649813Y-116198953D01*
X117636234Y-116201521D01*
X117635306Y-116201699D01*
X117611841Y-116207527D01*
X117596328Y-116214273D01*
X117591650Y-116218332D01*
X117590118Y-116222268D01*
X117588813Y-116230043D01*
X117587719Y-116242385D01*
X117586821Y-116260024D01*
X117586101Y-116283686D01*
X117585545Y-116314101D01*
X117585135Y-116351995D01*
X117584857Y-116398097D01*
X117584693Y-116453136D01*
X117584628Y-116517838D01*
X117584625Y-116536490D01*
G37*
X117584625Y-116536490D02*
X117584634Y-116601372D01*
X117584679Y-116656498D01*
X117584788Y-116702697D01*
X117584988Y-116740797D01*
X117585306Y-116771625D01*
X117585770Y-116796009D01*
X117586408Y-116814778D01*
X117587247Y-116828759D01*
X117588314Y-116838781D01*
X117589637Y-116845671D01*
X117591243Y-116850257D01*
X117593160Y-116853367D01*
X117595208Y-116855625D01*
X117604439Y-116863373D01*
X117610413Y-116866208D01*
X117616692Y-116867183D01*
X117633129Y-116870078D01*
X117659486Y-116874848D01*
X117695522Y-116881450D01*
X117740995Y-116889838D01*
X117795668Y-116899969D01*
X117859298Y-116911797D01*
X117931646Y-116925279D01*
X118012472Y-116940369D01*
X118101536Y-116957025D01*
X118127878Y-116961955D01*
X118156862Y-116967882D01*
X118177058Y-116973325D01*
X118190211Y-116978845D01*
X118197549Y-116984433D01*
X118201923Y-116991938D01*
X118209576Y-117008103D01*
X118220021Y-117031712D01*
X118232773Y-117061549D01*
X118247346Y-117096398D01*
X118263254Y-117135043D01*
X118280012Y-117176269D01*
X118297134Y-117218860D01*
X118314134Y-117261599D01*
X118330526Y-117303272D01*
X118345824Y-117342662D01*
X118359543Y-117378554D01*
X118371197Y-117409731D01*
X118380300Y-117434978D01*
X118386367Y-117453080D01*
X118388911Y-117462819D01*
X118388958Y-117463497D01*
X118387243Y-117469542D01*
X118381884Y-117480362D01*
X118372563Y-117496450D01*
X118358960Y-117518300D01*
X118340757Y-117546407D01*
X118317634Y-117581265D01*
X118289273Y-117623367D01*
X118255354Y-117673209D01*
X118224137Y-117718793D01*
X118193163Y-117764076D01*
X118163993Y-117807019D01*
X118137184Y-117846783D01*
X118113292Y-117882529D01*
X118092873Y-117913417D01*
X118076484Y-117938608D01*
X118064681Y-117957263D01*
X118058019Y-117968542D01*
X118056730Y-117971377D01*
X118057051Y-117974884D01*
X118059545Y-117980092D01*
X118064739Y-117987564D01*
X118073158Y-117997861D01*
X118085327Y-118011545D01*
X118101773Y-118029177D01*
X118123021Y-118051319D01*
X118149597Y-118078532D01*
X118182027Y-118111379D01*
X118220836Y-118150420D01*
X118266550Y-118196218D01*
X118276581Y-118206252D01*
X118323650Y-118253266D01*
X118363853Y-118293282D01*
X118397759Y-118326831D01*
X118425940Y-118354446D01*
X118448965Y-118376659D01*
X118467402Y-118394002D01*
X118481823Y-118407009D01*
X118492797Y-118416211D01*
X118500893Y-118422140D01*
X118506681Y-118425330D01*
X118510732Y-118426312D01*
X118511980Y-118426209D01*
X118519100Y-118422737D01*
X118533893Y-118413888D01*
X118555343Y-118400326D01*
X118582433Y-118382714D01*
X118614144Y-118361715D01*
X118649461Y-118337992D01*
X118687366Y-118312208D01*
X118697728Y-118305105D01*
X118738884Y-118276855D01*
X118779999Y-118248646D01*
X118819628Y-118221467D01*
X118856324Y-118196310D01*
X118888643Y-118174166D01*
X118915137Y-118156026D01*
X118934362Y-118142882D01*
X118934449Y-118142822D01*
X118958007Y-118127254D01*
X118979300Y-118114138D01*
X118996449Y-118104563D01*
X119007575Y-118099615D01*
X119009848Y-118099175D01*
X119017645Y-118101581D01*
X119033282Y-118108326D01*
X119055293Y-118118708D01*
X119082213Y-118132024D01*
X119112576Y-118147571D01*
X119131280Y-118157383D01*
X119162725Y-118173859D01*
X119191318Y-118188525D01*
X119215652Y-118200686D01*
X119234321Y-118209645D01*
X119245919Y-118214706D01*
X119248898Y-118215583D01*
X119257276Y-118211534D01*
X119264386Y-118203621D01*
X119267455Y-118197164D01*
X119274279Y-118181588D01*
X119284581Y-118157557D01*
X119298082Y-118125737D01*
X119314502Y-118086792D01*
X119333563Y-118041387D01*
X119354986Y-117990188D01*
X119378493Y-117933858D01*
X119403805Y-117873063D01*
X119430643Y-117808468D01*
X119458728Y-117740737D01*
X119481286Y-117686243D01*
X119519198Y-117594439D01*
X119553039Y-117512176D01*
X119582886Y-117439258D01*
X119608816Y-117375490D01*
X119630908Y-117320678D01*
X119649239Y-117274625D01*
X119663886Y-117237138D01*
X119674929Y-117208020D01*
X119682444Y-117187076D01*
X119686509Y-117174112D01*
X119687292Y-117169140D01*
X119681049Y-117160034D01*
X119667323Y-117147959D01*
X119649107Y-117135305D01*
X119614381Y-117112275D01*
X119577938Y-117086135D01*
X119542383Y-117058894D01*
X119510323Y-117032558D01*
X119484362Y-117009137D01*
X119480561Y-117005408D01*
X119426669Y-116944469D01*
X119381535Y-116878410D01*
X119345222Y-116808140D01*
X119317794Y-116734566D01*
X119299313Y-116658595D01*
X119289842Y-116581137D01*
X119289444Y-116503098D01*
X119298181Y-116425387D01*
X119316117Y-116348911D01*
X119343314Y-116274579D01*
X119379836Y-116203297D01*
X119420792Y-116142420D01*
X119475868Y-116078221D01*
X119537014Y-116022552D01*
X119603684Y-115975686D01*
X119675333Y-115937894D01*
X119751413Y-115909446D01*
X119831380Y-115890615D01*
X119914685Y-115881671D01*
X119947354Y-115880921D01*
X120032241Y-115885872D01*
X120113339Y-115900691D01*
X120190521Y-115925327D01*
X120263662Y-115959730D01*
X120332635Y-116003849D01*
X120397312Y-116057634D01*
X120403559Y-116063561D01*
X120461097Y-116125595D01*
X120508977Y-116191955D01*
X120547209Y-116262662D01*
X120575803Y-116337740D01*
X120594768Y-116417209D01*
X120604114Y-116501091D01*
X120604623Y-116512312D01*
X120603640Y-116593171D01*
X120594077Y-116669031D01*
X120575575Y-116741556D01*
X120547775Y-116812413D01*
X120533739Y-116841112D01*
X120497140Y-116903314D01*
X120453538Y-116961255D01*
X120402115Y-117015771D01*
X120342052Y-117067698D01*
X120272531Y-117117871D01*
X120245601Y-117135305D01*
X120226593Y-117148573D01*
X120213178Y-117160548D01*
X120207417Y-117169140D01*
X120208497Y-117175213D01*
X120212958Y-117189093D01*
X120220878Y-117210974D01*
X120232335Y-117241053D01*
X120247406Y-117279524D01*
X120266169Y-117326582D01*
X120288702Y-117382423D01*
X120315082Y-117447242D01*
X120345388Y-117521234D01*
X120379697Y-117604594D01*
X120413423Y-117686243D01*
X120442286Y-117755956D01*
X120470120Y-117823050D01*
X120496644Y-117886862D01*
X120521581Y-117946727D01*
X120544651Y-118001979D01*
X120565576Y-118051954D01*
X120584077Y-118095987D01*
X120599875Y-118133413D01*
X120612692Y-118163567D01*
X120622248Y-118185785D01*
X120628266Y-118199401D01*
X120630323Y-118203621D01*
X120638778Y-118212573D01*
X120645811Y-118215583D01*
X120652491Y-118213193D01*
X120667087Y-118206489D01*
X120688192Y-118196165D01*
X120714399Y-118182919D01*
X120744301Y-118167445D01*
X120763428Y-118157383D01*
X120795123Y-118140859D01*
X120824228Y-118126157D01*
X120849279Y-118113980D01*
X120868809Y-118105030D01*
X120881353Y-118100009D01*
X120884860Y-118099175D01*
X120893175Y-118102057D01*
X120908234Y-118109985D01*
X120928159Y-118121871D01*
X120951070Y-118136626D01*
X120960260Y-118142822D01*
X120979439Y-118155935D01*
X121005896Y-118174049D01*
X121038185Y-118196173D01*
X121074860Y-118221315D01*
X121114476Y-118248486D01*
X121155587Y-118276692D01*
X121196747Y-118304944D01*
X121196980Y-118305105D01*
X121235401Y-118331324D01*
X121271503Y-118355659D01*
X121304271Y-118377445D01*
X121332686Y-118396021D01*
X121355731Y-118410722D01*
X121372390Y-118420886D01*
X121381645Y-118425849D01*
X121382729Y-118426209D01*
X121386249Y-118425953D01*
X121391283Y-118423700D01*
X121398398Y-118418917D01*
X121408166Y-118411073D01*
X121421155Y-118399634D01*
X121437937Y-118384069D01*
X121459079Y-118363846D01*
X121485153Y-118338431D01*
X121516727Y-118307292D01*
X121554372Y-118269897D01*
X121598658Y-118225714D01*
X121618128Y-118206252D01*
X121665333Y-118158986D01*
X121705526Y-118118590D01*
X121739229Y-118084504D01*
X121766967Y-118056168D01*
X121789265Y-118033023D01*
X121806646Y-118014508D01*
X121819634Y-118000064D01*
X121828753Y-117989132D01*
X121834529Y-117981152D01*
X121837484Y-117975563D01*
X121838143Y-117971807D01*
X121838078Y-117971377D01*
X121834680Y-117964775D01*
X121825814Y-117950311D01*
X121812035Y-117928824D01*
X121793899Y-117901153D01*
X121771962Y-117868137D01*
X121746781Y-117830615D01*
X121718911Y-117789427D01*
X121688909Y-117745411D01*
X121670672Y-117718802D01*
X121632095Y-117662476D01*
X121599332Y-117614279D01*
X121572060Y-117573716D01*
X121549959Y-117540289D01*
X121532709Y-117513504D01*
X121519990Y-117492864D01*
X121511481Y-117477872D01*
X121506861Y-117468034D01*
X121505750Y-117463506D01*
X121507711Y-117455156D01*
X121513268Y-117438258D01*
X121521937Y-117414028D01*
X121533230Y-117383680D01*
X121546664Y-117348432D01*
X121561752Y-117309499D01*
X121578007Y-117268097D01*
X121594945Y-117225441D01*
X121612080Y-117182748D01*
X121628925Y-117141233D01*
X121644995Y-117102112D01*
X121659805Y-117066601D01*
X121672868Y-117035916D01*
X121683699Y-117011272D01*
X121691812Y-116993886D01*
X121696721Y-116984973D01*
X121697159Y-116984433D01*
X121705399Y-116978351D01*
X121719084Y-116972863D01*
X121739961Y-116967405D01*
X121766831Y-116961962D01*
X121851800Y-116946076D01*
X121930449Y-116931395D01*
X122002358Y-116917995D01*
X122067104Y-116905956D01*
X122124266Y-116895354D01*
X122173421Y-116886268D01*
X122214147Y-116878777D01*
X122246022Y-116872958D01*
X122268625Y-116868888D01*
X122281534Y-116866648D01*
X122284552Y-116866208D01*
X122291130Y-116862823D01*
X122299500Y-116855625D01*
X122301725Y-116853139D01*
X122303615Y-116849935D01*
X122305196Y-116845185D01*
X122306495Y-116838060D01*
X122307542Y-116827733D01*
X122308362Y-116813376D01*
X122308984Y-116794160D01*
X122309435Y-116769258D01*
X122309742Y-116737842D01*
X122309933Y-116699084D01*
X122310035Y-116652156D01*
X122310076Y-116596230D01*
X122310083Y-116536490D01*
X122310042Y-116469134D01*
X122309905Y-116411632D01*
X122309658Y-116363257D01*
X122309285Y-116323282D01*
X122308768Y-116290977D01*
X122308093Y-116265615D01*
X122307243Y-116246468D01*
X122306202Y-116232807D01*
X122304954Y-116223905D01*
X122303483Y-116219033D01*
X122303059Y-116218332D01*
X122292890Y-116211346D01*
X122273807Y-116204910D01*
X122259403Y-116201699D01*
X122246948Y-116199339D01*
X122225261Y-116195264D01*
X122195516Y-116189692D01*
X122158885Y-116182843D01*
X122116541Y-116174936D01*
X122069659Y-116166190D01*
X122019410Y-116156824D01*
X121966968Y-116147058D01*
X121960833Y-116145916D01*
X121909246Y-116136212D01*
X121860576Y-116126860D01*
X121815864Y-116118075D01*
X121776152Y-116110070D01*
X121742481Y-116103059D01*
X121715890Y-116097255D01*
X121697421Y-116092873D01*
X121688115Y-116090125D01*
X121687442Y-116089789D01*
X121682836Y-116083351D01*
X121674763Y-116068318D01*
X121663745Y-116045898D01*
X121650305Y-116017300D01*
X121634963Y-115983730D01*
X121618241Y-115946399D01*
X121600661Y-115906512D01*
X121582744Y-115865280D01*
X121565012Y-115823909D01*
X121547987Y-115783609D01*
X121532190Y-115745586D01*
X121518142Y-115711050D01*
X121506366Y-115681209D01*
X121497383Y-115657269D01*
X121491715Y-115640441D01*
X121489875Y-115632185D01*
X121491193Y-115626674D01*
X121495394Y-115617494D01*
X121502850Y-115604069D01*
X121513931Y-115585825D01*
X121529008Y-115562185D01*
X121548453Y-115532574D01*
X121572637Y-115496419D01*
X121601930Y-115453142D01*
X121636704Y-115402168D01*
X121662818Y-115364058D01*
X121694550Y-115317662D01*
X121724482Y-115273605D01*
X121752073Y-115232702D01*
X121776781Y-115195771D01*
X121798065Y-115163629D01*
X121815383Y-115137092D01*
X121828193Y-115116978D01*
X121835955Y-115104104D01*
X121838162Y-115099581D01*
X121837757Y-115096018D01*
X121835091Y-115090663D01*
X121829642Y-115082956D01*
X121820885Y-115072339D01*
X121808297Y-115058253D01*
X121791354Y-115040138D01*
X121769534Y-115017436D01*
X121742311Y-114989588D01*
X121709164Y-114956035D01*
X121669568Y-114916218D01*
X121623000Y-114869578D01*
X121618847Y-114865424D01*
X121565063Y-114811815D01*
X121518498Y-114765776D01*
X121479064Y-114727224D01*
X121446672Y-114696073D01*
X121421232Y-114672240D01*
X121402657Y-114655639D01*
X121390857Y-114646186D01*
X121386115Y-114643708D01*
X121379863Y-114646637D01*
X121365714Y-114655073D01*
X121344465Y-114668490D01*
X121316915Y-114686362D01*
X121283862Y-114708163D01*
X121246103Y-114733367D01*
X121204437Y-114761447D01*
X121159662Y-114791879D01*
X121116397Y-114821508D01*
X121059256Y-114860697D01*
X121010199Y-114894152D01*
X120968661Y-114922237D01*
X120934076Y-114945319D01*
X120905882Y-114963762D01*
X120883512Y-114977933D01*
X120866402Y-114988195D01*
X120853987Y-114994916D01*
X120845703Y-114998461D01*
X120841732Y-114999255D01*
X120832672Y-114997249D01*
X120815347Y-114991600D01*
X120790992Y-114982816D01*
X120760842Y-114971409D01*
X120726132Y-114957885D01*
X120688099Y-114942756D01*
X120647977Y-114926531D01*
X120607002Y-114909717D01*
X120566409Y-114892826D01*
X120527433Y-114876366D01*
X120491310Y-114860846D01*
X120459275Y-114846776D01*
X120432563Y-114834666D01*
X120412410Y-114825023D01*
X120400051Y-114818358D01*
X120396735Y-114815795D01*
X120394517Y-114808763D01*
X120390591Y-114792269D01*
X120385150Y-114767265D01*
X120378384Y-114734700D01*
X120370487Y-114695525D01*
X120361649Y-114650691D01*
X120352063Y-114601147D01*
X120341920Y-114547845D01*
X120332618Y-114498220D01*
X120319741Y-114429387D01*
X120308552Y-114370391D01*
X120298926Y-114320639D01*
X120290740Y-114279541D01*
X120283870Y-114246507D01*
X120278191Y-114220943D01*
X120273579Y-114202261D01*
X120269910Y-114189867D01*
X120267060Y-114183173D01*
X120266210Y-114182042D01*
X120263695Y-114180085D01*
X120259829Y-114178422D01*
X120253796Y-114177030D01*
X120244776Y-114175885D01*
X120231950Y-114174963D01*
X120214502Y-114174240D01*
X120191612Y-114173692D01*
X120162463Y-114173296D01*
X120126235Y-114173028D01*
X120082111Y-114172863D01*
X120029273Y-114172779D01*
X119966901Y-114172751D01*
X119947354Y-114172750D01*
X119882358Y-114172758D01*
X119827119Y-114172803D01*
X119780811Y-114172911D01*
X119742606Y-114173110D01*
X119711678Y-114173427D01*
X119687201Y-114173889D01*
X119668348Y-114174523D01*
X119654293Y-114175358D01*
X119644210Y-114176419D01*
X119637271Y-114177736D01*
X119632650Y-114179334D01*
X119629521Y-114181241D01*
X119627208Y-114183333D01*
X119619432Y-114192897D01*
X119616625Y-114199442D01*
X119615645Y-114207663D01*
X119612849Y-114224951D01*
X119608455Y-114250180D01*
X119602679Y-114282222D01*
X119595739Y-114319950D01*
X119587851Y-114362236D01*
X119579233Y-114407954D01*
X119570101Y-114455976D01*
X119560673Y-114505175D01*
X119551166Y-114554424D01*
X119541796Y-114602594D01*
X119532781Y-114648560D01*
X119524339Y-114691193D01*
X119516685Y-114729366D01*
X119510036Y-114761953D01*
X119504611Y-114787825D01*
X119500626Y-114805856D01*
X119498298Y-114814918D01*
X119497978Y-114815687D01*
X119491616Y-114820032D01*
X119476625Y-114827703D01*
X119454239Y-114838191D01*
X119425693Y-114850985D01*
X119392221Y-114865577D01*
X119355058Y-114881458D01*
X119315439Y-114898118D01*
X119274598Y-114915047D01*
X119233770Y-114931737D01*
X119194189Y-114947677D01*
X119157091Y-114962360D01*
X119123708Y-114975274D01*
X119095278Y-114985912D01*
X119073032Y-114993763D01*
X119058208Y-114998319D01*
X119052970Y-114999275D01*
X119049789Y-114999097D01*
X119046075Y-114998307D01*
X119041272Y-114996537D01*
X119034824Y-114993420D01*
X119026173Y-114988588D01*
X119014762Y-114981674D01*
X119000036Y-114972311D01*
X118981437Y-114960132D01*
X118958408Y-114944770D01*
X118930392Y-114925856D01*
X118896834Y-114903025D01*
X118857176Y-114875908D01*
X118810861Y-114844139D01*
X118757334Y-114807350D01*
X118696036Y-114765173D01*
X118648748Y-114732621D01*
X118615640Y-114710076D01*
X118584928Y-114689634D01*
X118557797Y-114672048D01*
X118535434Y-114658071D01*
X118519025Y-114648454D01*
X118509756Y-114643950D01*
X118508590Y-114643708D01*
X118502409Y-114647225D01*
X118489516Y-114657831D01*
X118469822Y-114675610D01*
X118443240Y-114700644D01*
X118409685Y-114733016D01*
X118369069Y-114772808D01*
X118321305Y-114820104D01*
X118275862Y-114865424D01*
X118228697Y-114912651D01*
X118188546Y-114953009D01*
X118154888Y-114987057D01*
X118127198Y-115015353D01*
X118104953Y-115038458D01*
X118087629Y-115056929D01*
X118074702Y-115071325D01*
X118065651Y-115082206D01*
X118059950Y-115090130D01*
X118057076Y-115095657D01*
X118056506Y-115099345D01*
X118056545Y-115099581D01*
X118059914Y-115106131D01*
X118068762Y-115120569D01*
X118082545Y-115142079D01*
X118100724Y-115169844D01*
X118122756Y-115203046D01*
X118148100Y-115240869D01*
X118176215Y-115282496D01*
X118206559Y-115327110D01*
X118231889Y-115364132D01*
X118270539Y-115420599D01*
X118303460Y-115468985D01*
X118331018Y-115509860D01*
X118353582Y-115543793D01*
X118371518Y-115571354D01*
X118385194Y-115593113D01*
X118394977Y-115609638D01*
X118401235Y-115621501D01*
X118404336Y-115629270D01*
X118404833Y-115632258D01*
X118402757Y-115641286D01*
X118396875Y-115658562D01*
X118387710Y-115682876D01*
X118375783Y-115713022D01*
X118361616Y-115747791D01*
X118345730Y-115785975D01*
X118328648Y-115826366D01*
X118310890Y-115867756D01*
X118292978Y-115908937D01*
X118275435Y-115948701D01*
X118258781Y-115985840D01*
X118243539Y-116019145D01*
X118230229Y-116047409D01*
X118219374Y-116069424D01*
X118211496Y-116083981D01*
X118207266Y-116089789D01*
X118199929Y-116092182D01*
X118183219Y-116096253D01*
X118158179Y-116101788D01*
X118125848Y-116108573D01*
X118087267Y-116116396D01*
X118043477Y-116125041D01*
X117995520Y-116134296D01*
X117944435Y-116143946D01*
X117933875Y-116145916D01*
X117881256Y-116155715D01*
X117830695Y-116165138D01*
X117783364Y-116173966D01*
X117740437Y-116181981D01*
X117703088Y-116188964D01*
X117672489Y-116194694D01*
X117649813Y-116198953D01*
X117636234Y-116201521D01*
X117635306Y-116201699D01*
X117611841Y-116207527D01*
X117596328Y-116214273D01*
X117591650Y-116218332D01*
X117590118Y-116222268D01*
X117588813Y-116230043D01*
X117587719Y-116242385D01*
X117586821Y-116260024D01*
X117586101Y-116283686D01*
X117585545Y-116314101D01*
X117585135Y-116351995D01*
X117584857Y-116398097D01*
X117584693Y-116453136D01*
X117584628Y-116517838D01*
X117584625Y-116536490D01*
D13*
%TO.C,TP5*%
X119400000Y-104140000D02*
G75*
G03*
X119400000Y-104140000I-1200000J0D01*
G01*
%TO.C,TP4*%
X121800000Y-104140000D02*
G75*
G03*
X121800000Y-104140000I-1200000J0D01*
G01*
%TO.C,TP3*%
X119150000Y-112200000D02*
G75*
G03*
X119150000Y-112200000I-1200000J0D01*
G01*
%TO.C,TP2*%
X123950000Y-112200000D02*
G75*
G03*
X123950000Y-112200000I-1200000J0D01*
G01*
%TO.C,TP1*%
X121550000Y-112200000D02*
G75*
G03*
X121550000Y-112200000I-1200000J0D01*
G01*
%TD*%
M02*
