M48
; DRILL file {KiCad (5.1.8)-1} date 01/22/21 22:28:18
; FORMAT={-:-/ absolute / inch / decimal}
; #@! TF.CreationDate,2021-01-22T22:28:18+01:00
; #@! TF.GenerationSoftware,Kicad,Pcbnew,(5.1.8)-1
; #@! TF.FileFunction,Plated,1,2,PTH
FMAT,2
INCH
T1C0.0118
%
G90
G05
T1
X4.5394Y-4.2953
X4.5394Y-4.4843
X4.5512Y-4.1969
X4.5748Y-4.2953
X4.5827Y-3.9764
X4.5906Y-4.4528
X4.5945Y-4.5827
X4.6063Y-4.6181
X4.6063Y-4.6614
X4.6142Y-4.1969
X4.6417Y-4.382
X4.6555Y-3.8504
X4.6555Y-4.0079
X4.6684Y-4.145
X4.6752Y-4.3622
X4.6988Y-3.8504
X4.7185Y-4.1929
X4.7185Y-4.2598
X4.7185Y-4.3228
X4.7402Y-4.0984
X4.7421Y-3.8504
X4.7677Y-4.4173
X4.7815Y-4.1929
X4.7815Y-4.2598
X4.7815Y-4.3228
X4.7894Y-3.8504
X4.8031Y-3.9921
X4.8031Y-4.4094
X4.8228Y-4.0984
X4.8307Y-4.5551
X4.8386Y-4.6181
X4.8386Y-4.6614
X4.8445Y-4.1929
X4.8445Y-4.2598
X4.8445Y-4.3228
X4.8661Y-4.4803
X4.8661Y-4.5138
X4.8858Y-4.372
X4.8976Y-3.9803
T0
M30
