%TF.GenerationSoftware,KiCad,Pcbnew,(5.1.8)-1*%
%TF.CreationDate,2021-01-22T22:27:45+01:00*%
%TF.ProjectId,IRMP_stm32,49524d50-5f73-4746-9d33-322e6b696361,rev?*%
%TF.SameCoordinates,Original*%
%TF.FileFunction,Copper,L2,Bot*%
%TF.FilePolarity,Positive*%
%FSLAX46Y46*%
G04 Gerber Fmt 4.6, Leading zero omitted, Abs format (unit mm)*
G04 Created by KiCad (PCBNEW (5.1.8)-1) date 2021-01-22 22:27:45*
%MOMM*%
%LPD*%
G01*
G04 APERTURE LIST*
%TA.AperFunction,SMDPad,CuDef*%
%ADD10C,2.000000*%
%TD*%
%TA.AperFunction,ViaPad*%
%ADD11C,0.600000*%
%TD*%
%TA.AperFunction,Conductor*%
%ADD12C,0.250000*%
%TD*%
%TA.AperFunction,Conductor*%
%ADD13C,0.200000*%
%TD*%
%TA.AperFunction,Conductor*%
%ADD14C,0.254000*%
%TD*%
%TA.AperFunction,Conductor*%
%ADD15C,0.100000*%
%TD*%
G04 APERTURE END LIST*
D10*
%TO.P,TP5,1*%
%TO.N,/SWCLK*%
X118200000Y-104140000D03*
%TD*%
%TO.P,TP4,1*%
%TO.N,/SWDIO*%
X120600000Y-104140000D03*
%TD*%
%TO.P,TP3,1*%
%TO.N,GNDD*%
X117950000Y-112200000D03*
%TD*%
%TO.P,TP2,1*%
%TO.N,+3V3*%
X122750000Y-112200000D03*
%TD*%
%TO.P,TP1,1*%
%TO.N,/NRST*%
X120350000Y-112200000D03*
%TD*%
D11*
%TO.N,GNDD*%
X116600000Y-113100000D03*
X117000000Y-118400000D03*
X117000000Y-117300000D03*
X122900000Y-118400000D03*
X122900000Y-117300000D03*
X123050000Y-108200000D03*
X121450000Y-108200000D03*
X119850000Y-108200000D03*
X121450000Y-106500000D03*
X123050000Y-106500000D03*
X119850000Y-106500000D03*
X121450000Y-109800000D03*
X123050000Y-109800000D03*
X119850000Y-109800000D03*
X118250000Y-97800000D03*
X121650000Y-97800000D03*
X119350000Y-97800000D03*
X120450002Y-97800000D03*
X115600000Y-106600000D03*
X124400000Y-101100000D03*
X116400000Y-101000000D03*
X122700006Y-115700000D03*
X123600000Y-113800000D03*
X117899477Y-111301868D03*
%TO.N,+5V*%
X118250000Y-101800000D03*
X122000000Y-101400000D03*
%TO.N,+3V3*%
X122000000Y-112000000D03*
X118750000Y-110800000D03*
X122500000Y-104100000D03*
X117200000Y-106600000D03*
%TO.N,/IR_PWR*%
X115300000Y-109100000D03*
X115300000Y-113900000D03*
%TO.N,/NRST*%
X121100000Y-112200000D03*
%TO.N,/SWDIO*%
X120400000Y-104100000D03*
%TO.N,/SWCLK*%
X118578400Y-105283000D03*
%TO.N,/IR_PIN*%
X124100000Y-111050000D03*
X123600000Y-114650000D03*
%TO.N,Net-(D2-Pad2)*%
X116700000Y-116400000D03*
X116200000Y-109100000D03*
%TD*%
D12*
%TO.N,+5V*%
X121600000Y-101800000D02*
X122000000Y-101400000D01*
X118250000Y-101800000D02*
X121600000Y-101800000D01*
D13*
%TO.N,+3V3*%
X121350000Y-110800000D02*
X122750000Y-112200000D01*
X118750000Y-110800000D02*
X121350000Y-110800000D01*
X122500000Y-103900000D02*
X122500000Y-104100000D01*
X121200000Y-102600000D02*
X122500000Y-103900000D01*
X116800000Y-103500000D02*
X117700000Y-102600000D01*
X116800000Y-106200000D02*
X116800000Y-103500000D01*
X117700000Y-102600000D02*
X121200000Y-102600000D01*
X117200000Y-106600000D02*
X116800000Y-106200000D01*
D12*
%TO.N,/IR_PWR*%
X115300000Y-109100000D02*
X115300000Y-113900000D01*
D13*
%TO.N,/SWCLK*%
X118578400Y-105283000D02*
X118197400Y-104902000D01*
X118197400Y-104902000D02*
X117806000Y-104902000D01*
X117537000Y-104633000D02*
X117537000Y-104140000D01*
X117806000Y-104902000D02*
X117537000Y-104633000D01*
%TO.N,/IR_PIN*%
X123600000Y-114650000D02*
X123750000Y-114650000D01*
X123750000Y-114650000D02*
X124250000Y-114150000D01*
X124250000Y-111200000D02*
X124100000Y-111050000D01*
X124250000Y-114150000D02*
X124250000Y-111200000D01*
D12*
%TO.N,Net-(D2-Pad2)*%
X116200000Y-115900000D02*
X116700000Y-116400000D01*
X116200000Y-113874998D02*
X116200000Y-115900000D01*
X115900000Y-113574998D02*
X116200000Y-113874998D01*
X115900000Y-109400000D02*
X115900000Y-113574998D01*
X116200000Y-109100000D02*
X115900000Y-109400000D01*
%TD*%
D14*
%TO.N,GNDD*%
X124873000Y-118673000D02*
X115027000Y-118673000D01*
X115027000Y-114465580D01*
X115117111Y-114502905D01*
X115238246Y-114527000D01*
X115361754Y-114527000D01*
X115482889Y-114502905D01*
X115596996Y-114455640D01*
X115699689Y-114387023D01*
X115748000Y-114338712D01*
X115748001Y-115877785D01*
X115745813Y-115900000D01*
X115754540Y-115988607D01*
X115780386Y-116073809D01*
X115780387Y-116073810D01*
X115822358Y-116152333D01*
X115878842Y-116221159D01*
X115896096Y-116235319D01*
X116073000Y-116412223D01*
X116073000Y-116461754D01*
X116097095Y-116582889D01*
X116144360Y-116696996D01*
X116212977Y-116799689D01*
X116300311Y-116887023D01*
X116403004Y-116955640D01*
X116517111Y-117002905D01*
X116638246Y-117027000D01*
X116761754Y-117027000D01*
X116882889Y-117002905D01*
X116996996Y-116955640D01*
X117099689Y-116887023D01*
X117187023Y-116799689D01*
X117255640Y-116696996D01*
X117302905Y-116582889D01*
X117327000Y-116461754D01*
X117327000Y-116338246D01*
X117302905Y-116217111D01*
X117255640Y-116103004D01*
X117187023Y-116000311D01*
X117099689Y-115912977D01*
X116996996Y-115844360D01*
X116882889Y-115797095D01*
X116761754Y-115773000D01*
X116712223Y-115773000D01*
X116652000Y-115712777D01*
X116652000Y-113897202D01*
X116654187Y-113874997D01*
X116645460Y-113786390D01*
X116619614Y-113701188D01*
X116577643Y-113622665D01*
X116521159Y-113553839D01*
X116503906Y-113539680D01*
X116352000Y-113387775D01*
X116352000Y-110738246D01*
X118123000Y-110738246D01*
X118123000Y-110861754D01*
X118147095Y-110982889D01*
X118194360Y-111096996D01*
X118262977Y-111199689D01*
X118350311Y-111287023D01*
X118453004Y-111355640D01*
X118567111Y-111402905D01*
X118688246Y-111427000D01*
X118811754Y-111427000D01*
X118932889Y-111402905D01*
X119046996Y-111355640D01*
X119149689Y-111287023D01*
X119209712Y-111227000D01*
X119446339Y-111227000D01*
X119319252Y-111354087D01*
X119174028Y-111571430D01*
X119073996Y-111812928D01*
X119023000Y-112069302D01*
X119023000Y-112330698D01*
X119073996Y-112587072D01*
X119174028Y-112828570D01*
X119319252Y-113045913D01*
X119504087Y-113230748D01*
X119721430Y-113375972D01*
X119962928Y-113476004D01*
X120219302Y-113527000D01*
X120480698Y-113527000D01*
X120737072Y-113476004D01*
X120978570Y-113375972D01*
X121195913Y-113230748D01*
X121380748Y-113045913D01*
X121525972Y-112828570D01*
X121550000Y-112770561D01*
X121574028Y-112828570D01*
X121719252Y-113045913D01*
X121904087Y-113230748D01*
X122121430Y-113375972D01*
X122362928Y-113476004D01*
X122619302Y-113527000D01*
X122880698Y-113527000D01*
X123137072Y-113476004D01*
X123378570Y-113375972D01*
X123595913Y-113230748D01*
X123780748Y-113045913D01*
X123823000Y-112982678D01*
X123823000Y-113973131D01*
X123754653Y-114041479D01*
X123661754Y-114023000D01*
X123538246Y-114023000D01*
X123417111Y-114047095D01*
X123303004Y-114094360D01*
X123200311Y-114162977D01*
X123112977Y-114250311D01*
X123044360Y-114353004D01*
X122997095Y-114467111D01*
X122973000Y-114588246D01*
X122973000Y-114711754D01*
X122997095Y-114832889D01*
X123044360Y-114946996D01*
X123112977Y-115049689D01*
X123200311Y-115137023D01*
X123303004Y-115205640D01*
X123417111Y-115252905D01*
X123538246Y-115277000D01*
X123661754Y-115277000D01*
X123782889Y-115252905D01*
X123896996Y-115205640D01*
X123999689Y-115137023D01*
X124087023Y-115049689D01*
X124155640Y-114946996D01*
X124202905Y-114832889D01*
X124210832Y-114793036D01*
X124537106Y-114466763D01*
X124553395Y-114453395D01*
X124566764Y-114437105D01*
X124566768Y-114437101D01*
X124606756Y-114388377D01*
X124646404Y-114314197D01*
X124646405Y-114314196D01*
X124670822Y-114233707D01*
X124677000Y-114170978D01*
X124677000Y-114170967D01*
X124679065Y-114150000D01*
X124677000Y-114129033D01*
X124677000Y-111295429D01*
X124702905Y-111232889D01*
X124727000Y-111111754D01*
X124727000Y-110988246D01*
X124702905Y-110867111D01*
X124655640Y-110753004D01*
X124587023Y-110650311D01*
X124499689Y-110562977D01*
X124396996Y-110494360D01*
X124282889Y-110447095D01*
X124161754Y-110423000D01*
X124038246Y-110423000D01*
X123917111Y-110447095D01*
X123803004Y-110494360D01*
X123700311Y-110562977D01*
X123612977Y-110650311D01*
X123544360Y-110753004D01*
X123497095Y-110867111D01*
X123473000Y-110988246D01*
X123473000Y-111087124D01*
X123378570Y-111024028D01*
X123137072Y-110923996D01*
X122880698Y-110873000D01*
X122619302Y-110873000D01*
X122362928Y-110923996D01*
X122161358Y-111007489D01*
X121666768Y-110512900D01*
X121653395Y-110496605D01*
X121588376Y-110443245D01*
X121514196Y-110403595D01*
X121433707Y-110379178D01*
X121370978Y-110373000D01*
X121370967Y-110373000D01*
X121350000Y-110370935D01*
X121329033Y-110373000D01*
X119209712Y-110373000D01*
X119149689Y-110312977D01*
X119046996Y-110244360D01*
X118932889Y-110197095D01*
X118811754Y-110173000D01*
X118688246Y-110173000D01*
X118567111Y-110197095D01*
X118453004Y-110244360D01*
X118350311Y-110312977D01*
X118262977Y-110400311D01*
X118194360Y-110503004D01*
X118147095Y-110617111D01*
X118123000Y-110738246D01*
X116352000Y-110738246D01*
X116352000Y-109709049D01*
X116382889Y-109702905D01*
X116496996Y-109655640D01*
X116599689Y-109587023D01*
X116687023Y-109499689D01*
X116755640Y-109396996D01*
X116802905Y-109282889D01*
X116827000Y-109161754D01*
X116827000Y-109038246D01*
X116802905Y-108917111D01*
X116755640Y-108803004D01*
X116687023Y-108700311D01*
X116599689Y-108612977D01*
X116496996Y-108544360D01*
X116382889Y-108497095D01*
X116261754Y-108473000D01*
X116138246Y-108473000D01*
X116017111Y-108497095D01*
X115903004Y-108544360D01*
X115800311Y-108612977D01*
X115750000Y-108663288D01*
X115699689Y-108612977D01*
X115596996Y-108544360D01*
X115482889Y-108497095D01*
X115361754Y-108473000D01*
X115238246Y-108473000D01*
X115117111Y-108497095D01*
X115027000Y-108534420D01*
X115027000Y-103500000D01*
X116370935Y-103500000D01*
X116373001Y-103520977D01*
X116373000Y-106179033D01*
X116370935Y-106200000D01*
X116373000Y-106220967D01*
X116373000Y-106220977D01*
X116379178Y-106283706D01*
X116403595Y-106364195D01*
X116403596Y-106364196D01*
X116443245Y-106438376D01*
X116483232Y-106487100D01*
X116496605Y-106503395D01*
X116512900Y-106516768D01*
X116573000Y-106576868D01*
X116573000Y-106661754D01*
X116597095Y-106782889D01*
X116644360Y-106896996D01*
X116712977Y-106999689D01*
X116800311Y-107087023D01*
X116903004Y-107155640D01*
X117017111Y-107202905D01*
X117138246Y-107227000D01*
X117261754Y-107227000D01*
X117382889Y-107202905D01*
X117496996Y-107155640D01*
X117599689Y-107087023D01*
X117687023Y-106999689D01*
X117755640Y-106896996D01*
X117802905Y-106782889D01*
X117827000Y-106661754D01*
X117827000Y-106538246D01*
X117802905Y-106417111D01*
X117755640Y-106303004D01*
X117687023Y-106200311D01*
X117599689Y-106112977D01*
X117496996Y-106044360D01*
X117382889Y-105997095D01*
X117261754Y-105973000D01*
X117227000Y-105973000D01*
X117227000Y-105043661D01*
X117354087Y-105170748D01*
X117571430Y-105315972D01*
X117812928Y-105416004D01*
X117971861Y-105447618D01*
X117975495Y-105465889D01*
X118022760Y-105579996D01*
X118091377Y-105682689D01*
X118178711Y-105770023D01*
X118281404Y-105838640D01*
X118395511Y-105885905D01*
X118516646Y-105910000D01*
X118640154Y-105910000D01*
X118761289Y-105885905D01*
X118875396Y-105838640D01*
X118978089Y-105770023D01*
X119065423Y-105682689D01*
X119134040Y-105579996D01*
X119181305Y-105465889D01*
X119205400Y-105344754D01*
X119205400Y-105221246D01*
X119181305Y-105100111D01*
X119162339Y-105054322D01*
X119230748Y-104985913D01*
X119375972Y-104768570D01*
X119400000Y-104710561D01*
X119424028Y-104768570D01*
X119569252Y-104985913D01*
X119754087Y-105170748D01*
X119971430Y-105315972D01*
X120212928Y-105416004D01*
X120469302Y-105467000D01*
X120730698Y-105467000D01*
X120987072Y-105416004D01*
X121228570Y-105315972D01*
X121445913Y-105170748D01*
X121630748Y-104985913D01*
X121775972Y-104768570D01*
X121876004Y-104527072D01*
X121915660Y-104327708D01*
X121944360Y-104396996D01*
X122012977Y-104499689D01*
X122100311Y-104587023D01*
X122203004Y-104655640D01*
X122317111Y-104702905D01*
X122438246Y-104727000D01*
X122561754Y-104727000D01*
X122682889Y-104702905D01*
X122796996Y-104655640D01*
X122899689Y-104587023D01*
X122987023Y-104499689D01*
X123055640Y-104396996D01*
X123102905Y-104282889D01*
X123127000Y-104161754D01*
X123127000Y-104038246D01*
X123102905Y-103917111D01*
X123055640Y-103803004D01*
X122987023Y-103700311D01*
X122899689Y-103612977D01*
X122796996Y-103544360D01*
X122713745Y-103509876D01*
X121516768Y-102312900D01*
X121503395Y-102296605D01*
X121449044Y-102252000D01*
X121577795Y-102252000D01*
X121600000Y-102254187D01*
X121622205Y-102252000D01*
X121688607Y-102245460D01*
X121773810Y-102219614D01*
X121852333Y-102177643D01*
X121921159Y-102121159D01*
X121935323Y-102103900D01*
X122012224Y-102027000D01*
X122061754Y-102027000D01*
X122182889Y-102002905D01*
X122296996Y-101955640D01*
X122399689Y-101887023D01*
X122487023Y-101799689D01*
X122555640Y-101696996D01*
X122602905Y-101582889D01*
X122627000Y-101461754D01*
X122627000Y-101338246D01*
X122602905Y-101217111D01*
X122555640Y-101103004D01*
X122487023Y-101000311D01*
X122399689Y-100912977D01*
X122296996Y-100844360D01*
X122182889Y-100797095D01*
X122061754Y-100773000D01*
X121938246Y-100773000D01*
X121817111Y-100797095D01*
X121703004Y-100844360D01*
X121600311Y-100912977D01*
X121512977Y-101000311D01*
X121444360Y-101103004D01*
X121397095Y-101217111D01*
X121373000Y-101338246D01*
X121373000Y-101348000D01*
X118684712Y-101348000D01*
X118649689Y-101312977D01*
X118546996Y-101244360D01*
X118432889Y-101197095D01*
X118311754Y-101173000D01*
X118188246Y-101173000D01*
X118067111Y-101197095D01*
X117953004Y-101244360D01*
X117850311Y-101312977D01*
X117762977Y-101400311D01*
X117694360Y-101503004D01*
X117647095Y-101617111D01*
X117623000Y-101738246D01*
X117623000Y-101861754D01*
X117647095Y-101982889D01*
X117694360Y-102096996D01*
X117745144Y-102173000D01*
X117720966Y-102173000D01*
X117699999Y-102170935D01*
X117679032Y-102173000D01*
X117679022Y-102173000D01*
X117616293Y-102179178D01*
X117535804Y-102203595D01*
X117505835Y-102219614D01*
X117461623Y-102243245D01*
X117412898Y-102283232D01*
X117412889Y-102283241D01*
X117396605Y-102296605D01*
X117383241Y-102312889D01*
X116512895Y-103183237D01*
X116496606Y-103196605D01*
X116483237Y-103212895D01*
X116483232Y-103212900D01*
X116443245Y-103261624D01*
X116403596Y-103335804D01*
X116379179Y-103416294D01*
X116370935Y-103500000D01*
X115027000Y-103500000D01*
X115027000Y-96827000D01*
X124873000Y-96827000D01*
X124873000Y-118673000D01*
%TA.AperFunction,Conductor*%
D15*
G36*
X124873000Y-118673000D02*
G01*
X115027000Y-118673000D01*
X115027000Y-114465580D01*
X115117111Y-114502905D01*
X115238246Y-114527000D01*
X115361754Y-114527000D01*
X115482889Y-114502905D01*
X115596996Y-114455640D01*
X115699689Y-114387023D01*
X115748000Y-114338712D01*
X115748001Y-115877785D01*
X115745813Y-115900000D01*
X115754540Y-115988607D01*
X115780386Y-116073809D01*
X115780387Y-116073810D01*
X115822358Y-116152333D01*
X115878842Y-116221159D01*
X115896096Y-116235319D01*
X116073000Y-116412223D01*
X116073000Y-116461754D01*
X116097095Y-116582889D01*
X116144360Y-116696996D01*
X116212977Y-116799689D01*
X116300311Y-116887023D01*
X116403004Y-116955640D01*
X116517111Y-117002905D01*
X116638246Y-117027000D01*
X116761754Y-117027000D01*
X116882889Y-117002905D01*
X116996996Y-116955640D01*
X117099689Y-116887023D01*
X117187023Y-116799689D01*
X117255640Y-116696996D01*
X117302905Y-116582889D01*
X117327000Y-116461754D01*
X117327000Y-116338246D01*
X117302905Y-116217111D01*
X117255640Y-116103004D01*
X117187023Y-116000311D01*
X117099689Y-115912977D01*
X116996996Y-115844360D01*
X116882889Y-115797095D01*
X116761754Y-115773000D01*
X116712223Y-115773000D01*
X116652000Y-115712777D01*
X116652000Y-113897202D01*
X116654187Y-113874997D01*
X116645460Y-113786390D01*
X116619614Y-113701188D01*
X116577643Y-113622665D01*
X116521159Y-113553839D01*
X116503906Y-113539680D01*
X116352000Y-113387775D01*
X116352000Y-110738246D01*
X118123000Y-110738246D01*
X118123000Y-110861754D01*
X118147095Y-110982889D01*
X118194360Y-111096996D01*
X118262977Y-111199689D01*
X118350311Y-111287023D01*
X118453004Y-111355640D01*
X118567111Y-111402905D01*
X118688246Y-111427000D01*
X118811754Y-111427000D01*
X118932889Y-111402905D01*
X119046996Y-111355640D01*
X119149689Y-111287023D01*
X119209712Y-111227000D01*
X119446339Y-111227000D01*
X119319252Y-111354087D01*
X119174028Y-111571430D01*
X119073996Y-111812928D01*
X119023000Y-112069302D01*
X119023000Y-112330698D01*
X119073996Y-112587072D01*
X119174028Y-112828570D01*
X119319252Y-113045913D01*
X119504087Y-113230748D01*
X119721430Y-113375972D01*
X119962928Y-113476004D01*
X120219302Y-113527000D01*
X120480698Y-113527000D01*
X120737072Y-113476004D01*
X120978570Y-113375972D01*
X121195913Y-113230748D01*
X121380748Y-113045913D01*
X121525972Y-112828570D01*
X121550000Y-112770561D01*
X121574028Y-112828570D01*
X121719252Y-113045913D01*
X121904087Y-113230748D01*
X122121430Y-113375972D01*
X122362928Y-113476004D01*
X122619302Y-113527000D01*
X122880698Y-113527000D01*
X123137072Y-113476004D01*
X123378570Y-113375972D01*
X123595913Y-113230748D01*
X123780748Y-113045913D01*
X123823000Y-112982678D01*
X123823000Y-113973131D01*
X123754653Y-114041479D01*
X123661754Y-114023000D01*
X123538246Y-114023000D01*
X123417111Y-114047095D01*
X123303004Y-114094360D01*
X123200311Y-114162977D01*
X123112977Y-114250311D01*
X123044360Y-114353004D01*
X122997095Y-114467111D01*
X122973000Y-114588246D01*
X122973000Y-114711754D01*
X122997095Y-114832889D01*
X123044360Y-114946996D01*
X123112977Y-115049689D01*
X123200311Y-115137023D01*
X123303004Y-115205640D01*
X123417111Y-115252905D01*
X123538246Y-115277000D01*
X123661754Y-115277000D01*
X123782889Y-115252905D01*
X123896996Y-115205640D01*
X123999689Y-115137023D01*
X124087023Y-115049689D01*
X124155640Y-114946996D01*
X124202905Y-114832889D01*
X124210832Y-114793036D01*
X124537106Y-114466763D01*
X124553395Y-114453395D01*
X124566764Y-114437105D01*
X124566768Y-114437101D01*
X124606756Y-114388377D01*
X124646404Y-114314197D01*
X124646405Y-114314196D01*
X124670822Y-114233707D01*
X124677000Y-114170978D01*
X124677000Y-114170967D01*
X124679065Y-114150000D01*
X124677000Y-114129033D01*
X124677000Y-111295429D01*
X124702905Y-111232889D01*
X124727000Y-111111754D01*
X124727000Y-110988246D01*
X124702905Y-110867111D01*
X124655640Y-110753004D01*
X124587023Y-110650311D01*
X124499689Y-110562977D01*
X124396996Y-110494360D01*
X124282889Y-110447095D01*
X124161754Y-110423000D01*
X124038246Y-110423000D01*
X123917111Y-110447095D01*
X123803004Y-110494360D01*
X123700311Y-110562977D01*
X123612977Y-110650311D01*
X123544360Y-110753004D01*
X123497095Y-110867111D01*
X123473000Y-110988246D01*
X123473000Y-111087124D01*
X123378570Y-111024028D01*
X123137072Y-110923996D01*
X122880698Y-110873000D01*
X122619302Y-110873000D01*
X122362928Y-110923996D01*
X122161358Y-111007489D01*
X121666768Y-110512900D01*
X121653395Y-110496605D01*
X121588376Y-110443245D01*
X121514196Y-110403595D01*
X121433707Y-110379178D01*
X121370978Y-110373000D01*
X121370967Y-110373000D01*
X121350000Y-110370935D01*
X121329033Y-110373000D01*
X119209712Y-110373000D01*
X119149689Y-110312977D01*
X119046996Y-110244360D01*
X118932889Y-110197095D01*
X118811754Y-110173000D01*
X118688246Y-110173000D01*
X118567111Y-110197095D01*
X118453004Y-110244360D01*
X118350311Y-110312977D01*
X118262977Y-110400311D01*
X118194360Y-110503004D01*
X118147095Y-110617111D01*
X118123000Y-110738246D01*
X116352000Y-110738246D01*
X116352000Y-109709049D01*
X116382889Y-109702905D01*
X116496996Y-109655640D01*
X116599689Y-109587023D01*
X116687023Y-109499689D01*
X116755640Y-109396996D01*
X116802905Y-109282889D01*
X116827000Y-109161754D01*
X116827000Y-109038246D01*
X116802905Y-108917111D01*
X116755640Y-108803004D01*
X116687023Y-108700311D01*
X116599689Y-108612977D01*
X116496996Y-108544360D01*
X116382889Y-108497095D01*
X116261754Y-108473000D01*
X116138246Y-108473000D01*
X116017111Y-108497095D01*
X115903004Y-108544360D01*
X115800311Y-108612977D01*
X115750000Y-108663288D01*
X115699689Y-108612977D01*
X115596996Y-108544360D01*
X115482889Y-108497095D01*
X115361754Y-108473000D01*
X115238246Y-108473000D01*
X115117111Y-108497095D01*
X115027000Y-108534420D01*
X115027000Y-103500000D01*
X116370935Y-103500000D01*
X116373001Y-103520977D01*
X116373000Y-106179033D01*
X116370935Y-106200000D01*
X116373000Y-106220967D01*
X116373000Y-106220977D01*
X116379178Y-106283706D01*
X116403595Y-106364195D01*
X116403596Y-106364196D01*
X116443245Y-106438376D01*
X116483232Y-106487100D01*
X116496605Y-106503395D01*
X116512900Y-106516768D01*
X116573000Y-106576868D01*
X116573000Y-106661754D01*
X116597095Y-106782889D01*
X116644360Y-106896996D01*
X116712977Y-106999689D01*
X116800311Y-107087023D01*
X116903004Y-107155640D01*
X117017111Y-107202905D01*
X117138246Y-107227000D01*
X117261754Y-107227000D01*
X117382889Y-107202905D01*
X117496996Y-107155640D01*
X117599689Y-107087023D01*
X117687023Y-106999689D01*
X117755640Y-106896996D01*
X117802905Y-106782889D01*
X117827000Y-106661754D01*
X117827000Y-106538246D01*
X117802905Y-106417111D01*
X117755640Y-106303004D01*
X117687023Y-106200311D01*
X117599689Y-106112977D01*
X117496996Y-106044360D01*
X117382889Y-105997095D01*
X117261754Y-105973000D01*
X117227000Y-105973000D01*
X117227000Y-105043661D01*
X117354087Y-105170748D01*
X117571430Y-105315972D01*
X117812928Y-105416004D01*
X117971861Y-105447618D01*
X117975495Y-105465889D01*
X118022760Y-105579996D01*
X118091377Y-105682689D01*
X118178711Y-105770023D01*
X118281404Y-105838640D01*
X118395511Y-105885905D01*
X118516646Y-105910000D01*
X118640154Y-105910000D01*
X118761289Y-105885905D01*
X118875396Y-105838640D01*
X118978089Y-105770023D01*
X119065423Y-105682689D01*
X119134040Y-105579996D01*
X119181305Y-105465889D01*
X119205400Y-105344754D01*
X119205400Y-105221246D01*
X119181305Y-105100111D01*
X119162339Y-105054322D01*
X119230748Y-104985913D01*
X119375972Y-104768570D01*
X119400000Y-104710561D01*
X119424028Y-104768570D01*
X119569252Y-104985913D01*
X119754087Y-105170748D01*
X119971430Y-105315972D01*
X120212928Y-105416004D01*
X120469302Y-105467000D01*
X120730698Y-105467000D01*
X120987072Y-105416004D01*
X121228570Y-105315972D01*
X121445913Y-105170748D01*
X121630748Y-104985913D01*
X121775972Y-104768570D01*
X121876004Y-104527072D01*
X121915660Y-104327708D01*
X121944360Y-104396996D01*
X122012977Y-104499689D01*
X122100311Y-104587023D01*
X122203004Y-104655640D01*
X122317111Y-104702905D01*
X122438246Y-104727000D01*
X122561754Y-104727000D01*
X122682889Y-104702905D01*
X122796996Y-104655640D01*
X122899689Y-104587023D01*
X122987023Y-104499689D01*
X123055640Y-104396996D01*
X123102905Y-104282889D01*
X123127000Y-104161754D01*
X123127000Y-104038246D01*
X123102905Y-103917111D01*
X123055640Y-103803004D01*
X122987023Y-103700311D01*
X122899689Y-103612977D01*
X122796996Y-103544360D01*
X122713745Y-103509876D01*
X121516768Y-102312900D01*
X121503395Y-102296605D01*
X121449044Y-102252000D01*
X121577795Y-102252000D01*
X121600000Y-102254187D01*
X121622205Y-102252000D01*
X121688607Y-102245460D01*
X121773810Y-102219614D01*
X121852333Y-102177643D01*
X121921159Y-102121159D01*
X121935323Y-102103900D01*
X122012224Y-102027000D01*
X122061754Y-102027000D01*
X122182889Y-102002905D01*
X122296996Y-101955640D01*
X122399689Y-101887023D01*
X122487023Y-101799689D01*
X122555640Y-101696996D01*
X122602905Y-101582889D01*
X122627000Y-101461754D01*
X122627000Y-101338246D01*
X122602905Y-101217111D01*
X122555640Y-101103004D01*
X122487023Y-101000311D01*
X122399689Y-100912977D01*
X122296996Y-100844360D01*
X122182889Y-100797095D01*
X122061754Y-100773000D01*
X121938246Y-100773000D01*
X121817111Y-100797095D01*
X121703004Y-100844360D01*
X121600311Y-100912977D01*
X121512977Y-101000311D01*
X121444360Y-101103004D01*
X121397095Y-101217111D01*
X121373000Y-101338246D01*
X121373000Y-101348000D01*
X118684712Y-101348000D01*
X118649689Y-101312977D01*
X118546996Y-101244360D01*
X118432889Y-101197095D01*
X118311754Y-101173000D01*
X118188246Y-101173000D01*
X118067111Y-101197095D01*
X117953004Y-101244360D01*
X117850311Y-101312977D01*
X117762977Y-101400311D01*
X117694360Y-101503004D01*
X117647095Y-101617111D01*
X117623000Y-101738246D01*
X117623000Y-101861754D01*
X117647095Y-101982889D01*
X117694360Y-102096996D01*
X117745144Y-102173000D01*
X117720966Y-102173000D01*
X117699999Y-102170935D01*
X117679032Y-102173000D01*
X117679022Y-102173000D01*
X117616293Y-102179178D01*
X117535804Y-102203595D01*
X117505835Y-102219614D01*
X117461623Y-102243245D01*
X117412898Y-102283232D01*
X117412889Y-102283241D01*
X117396605Y-102296605D01*
X117383241Y-102312889D01*
X116512895Y-103183237D01*
X116496606Y-103196605D01*
X116483237Y-103212895D01*
X116483232Y-103212900D01*
X116443245Y-103261624D01*
X116403596Y-103335804D01*
X116379179Y-103416294D01*
X116370935Y-103500000D01*
X115027000Y-103500000D01*
X115027000Y-96827000D01*
X124873000Y-96827000D01*
X124873000Y-118673000D01*
G37*
%TD.AperFunction*%
%TD*%
M02*
