%TF.GenerationSoftware,KiCad,Pcbnew,(5.1.8)-1*%
%TF.CreationDate,2021-01-22T22:27:45+01:00*%
%TF.ProjectId,IRMP_stm32,49524d50-5f73-4746-9d33-322e6b696361,rev?*%
%TF.SameCoordinates,Original*%
%TF.FileFunction,Legend,Top*%
%TF.FilePolarity,Positive*%
%FSLAX46Y46*%
G04 Gerber Fmt 4.6, Leading zero omitted, Abs format (unit mm)*
G04 Created by KiCad (PCBNEW (5.1.8)-1) date 2021-01-22 22:27:45*
%MOMM*%
%LPD*%
G01*
G04 APERTURE LIST*
%ADD10C,0.200000*%
%ADD11C,0.120000*%
G04 APERTURE END LIST*
D10*
%TO.C,U1*%
X123350000Y-118750000D02*
X123350000Y-117750000D01*
X123350000Y-117750000D02*
X122490000Y-117750000D01*
X122490000Y-118750000D02*
X123350000Y-118750000D01*
X117410000Y-118750000D02*
X116550000Y-118750000D01*
X116550000Y-118750000D02*
X116550000Y-117750000D01*
X117410000Y-117750000D02*
X116550000Y-117750000D01*
%TO.C,X1*%
X123700000Y-98800000D02*
X123700000Y-100600000D01*
X123700000Y-100600000D02*
X121750000Y-100600000D01*
X116250000Y-98800000D02*
X116250000Y-100600000D01*
X116250000Y-100600000D02*
X118150000Y-100600000D01*
D11*
%TO.C,R5*%
X124120000Y-115043641D02*
X124120000Y-114736359D01*
X124880000Y-115043641D02*
X124880000Y-114736359D01*
%TO.C,D1*%
X123465000Y-116462500D02*
X123465000Y-118747500D01*
X123465000Y-118747500D02*
X124935000Y-118747500D01*
X124935000Y-118747500D02*
X124935000Y-116462500D01*
%TO.C,R6*%
X116680000Y-110136359D02*
X116680000Y-110443641D01*
X115920000Y-110136359D02*
X115920000Y-110443641D01*
%TO.C,D2*%
X114965000Y-116462500D02*
X114965000Y-118747500D01*
X114965000Y-118747500D02*
X116435000Y-118747500D01*
X116435000Y-118747500D02*
X116435000Y-116462500D01*
%TO.C,C1*%
X114790000Y-111787500D02*
X114790000Y-115997500D01*
X114790000Y-115997500D02*
X117810000Y-115997500D01*
X117810000Y-115997500D02*
X117810000Y-111787500D01*
%TO.C,U2*%
X114840000Y-102300000D02*
X114840000Y-104100000D01*
X118060000Y-104100000D02*
X118060000Y-101650000D01*
%TO.C,U3*%
X118333000Y-105767000D02*
X118333000Y-105042000D01*
X118333000Y-105042000D02*
X119058000Y-105042000D01*
X124553000Y-110537000D02*
X124553000Y-111262000D01*
X124553000Y-111262000D02*
X123828000Y-111262000D01*
X124553000Y-105767000D02*
X124553000Y-105042000D01*
X124553000Y-105042000D02*
X123828000Y-105042000D01*
X118333000Y-110537000D02*
X118333000Y-111262000D01*
%TO.C,C6*%
X116234420Y-105090000D02*
X116515580Y-105090000D01*
X116234420Y-106110000D02*
X116515580Y-106110000D01*
%TO.C,C7*%
X123287836Y-112460000D02*
X123072164Y-112460000D01*
X123287836Y-111740000D02*
X123072164Y-111740000D01*
%TO.C,C4*%
X123287836Y-113360000D02*
X123072164Y-113360000D01*
X123287836Y-112640000D02*
X123072164Y-112640000D01*
%TO.C,C2*%
X122340000Y-114587836D02*
X122340000Y-114372164D01*
X123060000Y-114587836D02*
X123060000Y-114372164D01*
%TO.C,C3*%
X123715580Y-102610000D02*
X123434420Y-102610000D01*
X123715580Y-101590000D02*
X123434420Y-101590000D01*
%TO.C,C8*%
X123987836Y-104460000D02*
X123772164Y-104460000D01*
X123987836Y-103740000D02*
X123772164Y-103740000D01*
%TO.C,R2*%
X120120000Y-102898641D02*
X120120000Y-102591359D01*
X120880000Y-102898641D02*
X120880000Y-102591359D01*
%TO.C,C9*%
X118712164Y-111640000D02*
X118927836Y-111640000D01*
X118712164Y-112360000D02*
X118927836Y-112360000D01*
%TO.C,R3*%
X119220000Y-102896641D02*
X119220000Y-102589359D01*
X119980000Y-102896641D02*
X119980000Y-102589359D01*
%TO.C,R1*%
X121020000Y-102898641D02*
X121020000Y-102591359D01*
X121780000Y-102898641D02*
X121780000Y-102591359D01*
%TO.C,R4*%
X115780000Y-110136359D02*
X115780000Y-110443641D01*
X115020000Y-110136359D02*
X115020000Y-110443641D01*
%TO.C,C10*%
X118913000Y-103679164D02*
X118913000Y-103894836D01*
X118193000Y-103679164D02*
X118193000Y-103894836D01*
%TO.C,C5*%
X118712164Y-112540000D02*
X118927836Y-112540000D01*
X118712164Y-113260000D02*
X118927836Y-113260000D01*
%TD*%
M02*
